<svg xmlns="http://www.w3.org/2000/svg" width="430" height="430" style="width:100%;height:100%;transform:translate3d(0,0,0);content-visibility:visible" viewBox="0 0 430 430"><defs><clipPath id="l"><path d="M0 0h430v430H0z"/></clipPath><clipPath id="C"><path d="M0 0h430v430H0z"/></clipPath><clipPath id="B"><path d="M0 0h430v430H0z"/></clipPath><clipPath id="A"><path d="M0 0h430v430H0z"/></clipPath><clipPath id="x"><path d="M0 0h430v430H0z"/></clipPath><clipPath id="u"><path d="M0 0h430v430H0z"/></clipPath><clipPath id="t"><path d="M0 0h430v430H0z"/></clipPath><clipPath id="s"><path d="M0 0h430v430H0z"/></clipPath><clipPath id="q"><path d="M0 0h430v430H0z"/></clipPath><clipPath id="o"><path d="M0 0h430v430H0z"/></clipPath><clipPath id="n"><path d="M0 0h430v430H0z"/></clipPath><clipPath id="m"><path d="M0 0h430v430H0z"/></clipPath><mask id="D" mask-type="alpha"><use xmlns:ns1="http://www.w3.org/1999/xlink" ns1:href="#a"/></mask><mask id="z" mask-type="alpha"><g filter="url(#b)"><path fill="#fff" d="M0 0h430v430H0z" opacity="0"/><use xmlns:ns2="http://www.w3.org/1999/xlink" ns2:href="#c"/></g></mask><mask id="y" mask-type="alpha"><g filter="url(#d)"><path fill="#fff" d="M0 0h430v430H0z" opacity="0"/><use xmlns:ns3="http://www.w3.org/1999/xlink" ns3:href="#e"/></g></mask><mask id="w" mask-type="alpha"><g filter="url(#f)"><path fill="#fff" d="M0 0h430v430H0z" opacity="0"/><use xmlns:ns4="http://www.w3.org/1999/xlink" ns4:href="#g"/></g></mask><mask id="v" mask-type="alpha"><g filter="url(#h)"><path fill="#fff" d="M0 0h430v430H0z" opacity="0"/><use xmlns:ns5="http://www.w3.org/1999/xlink" ns5:href="#i"/></g></mask><mask id="r" mask-type="alpha"><use xmlns:ns6="http://www.w3.org/1999/xlink" ns6:href="#j"/></mask><mask id="p" mask-type="alpha"><use xmlns:ns7="http://www.w3.org/1999/xlink" ns7:href="#k"/></mask><path id="a" style="display:none"/><path id="c" fill-opacity="0" stroke-linecap="round" stroke-linejoin="round" style="display:none"/><path id="e" fill-opacity="0" stroke-linecap="round" stroke-linejoin="round" style="display:none"/><path id="g" style="display:none"/><path id="i" style="display:none"/><filter id="b" width="100%" height="100%" x="0%" y="0%" filterUnits="objectBoundingBox"><feComponentTransfer in="SourceGraphic"><feFuncA tableValues="1.0 0.0" type="table"/></feComponentTransfer></filter><filter id="d" width="100%" height="100%" x="0%" y="0%" filterUnits="objectBoundingBox"><feComponentTransfer in="SourceGraphic"><feFuncA tableValues="1.0 0.0" type="table"/></feComponentTransfer></filter><filter id="f" width="100%" height="100%" x="0%" y="0%" filterUnits="objectBoundingBox"><feComponentTransfer in="SourceGraphic"><feFuncA tableValues="1.0 0.0" type="table"/></feComponentTransfer></filter><filter id="h" width="100%" height="100%" x="0%" y="0%" filterUnits="objectBoundingBox"><feComponentTransfer in="SourceGraphic"><feFuncA tableValues="1.0 0.0" type="table"/></feComponentTransfer></filter><g id="j" style="display:none"><path/><path fill-opacity="0" stroke-linecap="round" stroke-linejoin="round" class="primary"/></g><g id="k" style="display:none"><path fill-opacity="0" stroke-linecap="round" stroke-linejoin="round" class="primary"/><path class="primary"/></g></defs><g clip-path="url(#l)"><g clip-path="url(#m)" style="display:none"><g style="display:none"><path class="primary"/><path class="primary"/></g><g style="display:none"><path class="primary"/><path class="primary" style="mix-blend-mode:multiply"/></g><path class="primary" style="display:none"/></g><g clip-path="url(#n)" style="display:none"><g style="display:none"><path class="primary"/><path class="primary" style="mix-blend-mode:multiply"/></g><g style="display:none"><path class="quaternary"/><path class="quaternary" style="mix-blend-mode:multiply"/></g></g><g clip-path="url(#o)" mask="url(#p)" style="display:none"><path class="primary"/><path class="primary" style="mix-blend-mode:multiply"/></g><g clip-path="url(#q)" style="display:none"><g mask="url(#r)" style="display:none"><path class="primary"/><path class="primary" style="mix-blend-mode:multiply"/></g><path fill="none" class="secondary" style="display:none"/></g><g clip-path="url(#s)" style="display:none"><g style="display:none"><path class="primary"/><path class="primary" style="mix-blend-mode:multiply"/></g><path class="primary" style="display:none"/><path class="secondary" style="display:none"/></g><g clip-path="url(#t)" style="display:none"><g style="display:none"><path class="primary"/><path class="primary" style="mix-blend-mode:multiply"/></g><g style="display:none"><path class="tertiary"/><path class="tertiary" style="mix-blend-mode:multiply"/></g><g style="display:none"><path class="tertiary"/><path class="tertiary" style="mix-blend-mode:multiply"/></g></g><g clip-path="url(#u)" style="display:none"><g mask="url(#v)" style="display:none"><path class="primary"/><path class="primary" style="mix-blend-mode:multiply"/></g><g mask="url(#w)" style="display:none"><path fill="none" class="secondary"/></g><path fill="none" class="quinary" style="display:none"/></g><g clip-path="url(#x)" style="display:none"><g mask="url(#y)" style="display:none"><path class="primary"/><path class="primary" style="mix-blend-mode:multiply"/></g><g mask="url(#z)" style="display:none"><path fill="none" class="secondary"/></g><path fill="none" class="quinary" style="display:none"/></g><g clip-path="url(#A)" style="display:none"><g style="display:none"><path class="primary"/><path class="primary" style="mix-blend-mode:multiply"/></g><path fill="none" class="secondary" style="display:none"/></g><g clip-path="url(#B)" style="display:block"><g fill="#F28BA8" style="display:block"><path d="M362.026 84.631c-17.106-16.911-38.83-27.259-62.822-29.923-31.072-3.451-61.571 6.615-84.21 27.674-19.681-18.303-45.236-28.344-72.323-28.344-28.201 0-54.722 10.875-74.706 30.59C47.997 104.327 37 130.524 37 158.391s10.997 54.063 30.964 73.761l144.565 142.769a3.5 3.5 0 0 0 2.468 1.009c.926 0 1.814-.363 2.468-1.009l144.559-142.769C381.998 212.425 393 186.235 393 158.411c0-27.852-11.01-54.044-30.974-73.78" class="primary"/><path d="M89.233-132.644C69.59-150.708 43.71-160.987 16.91-160.987c-28.201 0-54.721 10.874-74.705 30.589-19.968 19.699-30.966 45.896-30.966 73.763s10.998 54.063 30.965 73.761L84.3 157.457c4.241 4.189 4.936 3.448 4.936 3.448z" class="primary" opacity=".5" style="mix-blend-mode:multiply" transform="translate(125.76 215.026)"/></g><path fill="none" stroke="#EBE6EF" stroke-linecap="round" stroke-linejoin="round" stroke-width="7" d="M-71.307-133.185c-20.152.741-37.451 6.409-53.522 22.11-14.326 13.997-24.247 34.003-22.976 55.378" class="secondary" style="display:block" transform="translate(215 215)"/></g><g clip-path="url(#C)" style="display:none"><path class="primary" style="display:none"/><g mask="url(#D)" style="mix-blend-mode:multiply;display:none"><path class="primary"/></g><path fill="none" class="secondary" style="display:none"/></g></g></svg>